/* XPM */
static /*const*/ char * cursor_trim_end_xpm[] = {
/* width height num_colors chars_per_pixel */
"32 32 28 1",
/* colors */
"  c None",
"! c #ffffff",
"# c #ff0000",
"$ c #fdfdfd",
"% c #fbfbfb",
"& c #f8f8f8",
"' c #f5f5f5",
"( c #f1f1f1",
") c #eeeeee",
"* c #eaeaea",
"+ c #e6e6e6",
", c #e5e6e8",
"- c #e2e2e4",
". c #e2e2e2",
"/ c #dcdddf",
"0 c #dbdbdb",
"1 c #d9d9db",
"2 c #d8d8d8",
"3 c #d6d6d8",
"4 c #d3d3d3",
"5 c #cfcfd1",
"6 c #c9c9cb",
"7 c #c0c0c2",
"8 c #b0b0b5",
"9 c #a4a5ab",
": c #808080",
"; c #03061a",
"< c #000000",
/* pixels */
";;                              ",
";;;                             ",
";,;;                            ",
";!,;;                           ",
";!!,;;                          ",
";!!!,;;                         ",
";!!!!,;;                        ",
";!!!!$-;;                       ",
";!!!$%&/;;                      ",
";!!$%&'(3;;                     ",
";!$%&'()*5;;                    ",
";$%&'()*+.6;                    ",
";%&'1)*;;;;;                    ",
";&'1;9+;;                       ",
";'1;;;.6;                       ",
";1;; ;80;;                      ",
";;;  ;;27;                      ",
"      ;74;                      ",
"      ;;;;            :<<<<<    ",
"                      :<###<    ",
"                      :<<<#<    ",
"                         <#<    ",
"                         <#<    ",
"                         <#<    ",
"                         <#<    ",
"                         <#<    ",
"                         <#<    ",
"                         <#<    ",
"                         <#<    ",
"                       <<<#<    ",
"                       <###<    ",
"                       <<<<<    "
};
