<?xml version="1.0" encoding="UTF-8" standalone="no"?>
<!-- Created with Inkscape (http://www.inkscape.org/) -->
<svg xmlns:dc="http://purl.org/dc/elements/1.1/" xmlns:cc="http://creativecommons.org/ns#" xmlns:rdf="http://www.w3.org/1999/02/22-rdf-syntax-ns#" xmlns:svg="http://www.w3.org/2000/svg" xmlns="http://www.w3.org/2000/svg" xmlns:sodipodi="http://sodipodi.sourceforge.net/DTD/sodipodi-0.dtd" xmlns:inkscape="http://www.inkscape.org/namespaces/inkscape" width="1259.0492" height="1000" id="svg2" sodipodi:version="0.32" inkscape:version="0.46" sodipodi:docbase="C:\FotoBank\Подготовка к записи DVD\Векторные рисунки" sodipodi:docname="T-shirt (White).svg" inkscape:output_extension="org.inkscape.output.svg.inkscape" version="1.0">
  <defs id="defs4">
    <inkscape:perspective sodipodi:type="inkscape:persp3d" inkscape:vp_x="0 : 277.98749 : 1" inkscape:vp_y="0 : 1000 : 0" inkscape:vp_z="700 : 277.98749 : 1" inkscape:persp3d-origin="350 : 185.32499 : 1" id="perspective10"/>
  </defs>
  <sodipodi:namedview id="base" pagecolor="#ffffff" bordercolor="#666666" borderopacity="1.0" gridtolerance="10000" guidetolerance="10" objecttolerance="10" inkscape:pageopacity="0.0" inkscape:pageshadow="2" inkscape:zoom="0.79" inkscape:cx="427.62587" inkscape:cy="500" inkscape:document-units="px" inkscape:current-layer="layer1" inkscape:window-width="1680" inkscape:window-height="1003" inkscape:window-x="0" inkscape:window-y="20" height="555.975px" width="700px" showgrid="false"/>
  <metadata id="metadata7">
    <rdf:RDF>
      <cc:Work rdf:about="">
        <dc:format>image/svg+xml</dc:format>
        <dc:type rdf:resource="http://purl.org/dc/dcmitype/StillImage"/>
      </cc:Work>
    </rdf:RDF>
  </metadata>
  <g inkscape:label="Layer 1" inkscape:groupmode="layer" id="layer1" transform="translate(2.9680359e-6,444.02497)">
    <path style="fill:#ffffff;fill-opacity:1;stroke:#000000;stroke-width:8.67641354000000040;stroke-linecap:square;stroke-linejoin:bevel;stroke-miterlimit:3.50000000000000000;stroke-dasharray:none;stroke-dashoffset:0;stroke-opacity:1" d="M 304.08017,-439.68676 L 4.3382038,-93.504066 L 218.9715,51.696719 L 307.0848,-50.067929 L 307.0848,551.63683 L 952.02973,551.63683 L 952.02973,-50.002603 L 1040.0777,51.696719 L 1254.711,-93.504066 L 955.03436,-439.68676 L 952.02973,-437.66194 L 952.02973,-439.68676 L 849.41596,-439.68676 C 806.73162,-352.01218 724.25187,-292.59179 629.55727,-292.59179 C 534.8627,-292.59181 452.3176,-352.01218 409.63328,-439.68676 L 307.0848,-439.68676 L 307.0848,-437.66194 L 304.08017,-439.68676 z" id="rect2160"/>
    <path style="opacity:1;fill:#ff69b4;fill-opacity:0;fill-rule:evenodd;stroke:none;stroke-width:4;stroke-miterlimit:4;stroke-dasharray:4, 4;stroke-dashoffset:0;stroke-opacity:1" d="M 312.0132,246.59437 C 311.3288,28.175881 309.96765,-52.193834 306.93548,-53.204347 C 304.65716,-53.963625 284.2607,-33.135264 261.61043,-6.9189102 C 238.96013,19.297444 218.95686,40.747182 217.15833,40.747182 C 215.36013,40.747182 168.81899,10.275259 113.73347,-26.968208 L 13.577948,-94.683687 L 160.50081,-264.45361 L 307.42402,-434.22371 L 356.75435,-434.14588 L 406.08467,-434.06805 L 418.874,-411.33879 C 434.47371,-383.61442 479.31644,-338.12314 507.27028,-321.66333 C 542.32404,-301.0233 577.02371,-290.69054 617.40332,-288.86868 C 663.62034,-286.78336 689.88234,-292.18901 732.68498,-312.59762 C 761.03675,-326.11585 772.14558,-334.09333 796.98797,-358.77412 C 813.50484,-375.18351 832.71809,-398.47534 839.68427,-410.53387 L 852.35011,-432.45845 L 901.86349,-433.47188 L 951.3765,-434.48534 L 1089.8167,-274.58156 C 1165.9586,-186.63466 1232.0057,-110.24262 1236.5883,-104.8215 L 1244.92,-94.96494 L 1211.01,-71.575493 C 1192.3588,-58.71114 1146.5441,-27.540553 1109.1992,-2.3074446 L 1041.2987,43.570959 L 999.57625,-5.1928617 C 976.05995,-32.677636 955.46141,-53.60235 952.37225,-53.144632 C 947.56016,-52.431722 946.77709,-15.8712 945.95638,246.34001 L 945.02131,545.01265 L 628.98461,545.01265 L 312.94792,545.01265 L 312.0132,246.59437 z" id="path3153"/>
    <path style="opacity:1;fill:#ff69b4;fill-opacity:0;fill-rule:evenodd;stroke:none;stroke-width:4;stroke-miterlimit:4;stroke-dasharray:4, 4;stroke-dashoffset:0;stroke-opacity:1" d="M 312.0132,246.59437 C 311.3288,28.175881 309.96765,-52.193834 306.93548,-53.204347 C 304.65716,-53.963625 284.2607,-33.135264 261.61043,-6.9189102 C 238.96013,19.297444 218.95686,40.747182 217.15833,40.747182 C 215.36013,40.747182 168.81899,10.275259 113.73347,-26.968208 L 13.577948,-94.683687 L 160.50081,-264.45361 L 307.42402,-434.22371 L 356.75435,-434.14588 L 406.08467,-434.06805 L 418.874,-411.33879 C 434.47371,-383.61442 479.31644,-338.12314 507.27028,-321.66333 C 542.32404,-301.0233 577.02371,-290.69054 617.40332,-288.86868 C 663.62034,-286.78336 689.88234,-292.18901 732.68498,-312.59762 C 761.03675,-326.11585 772.14558,-334.09333 796.98797,-358.77412 C 813.50484,-375.18351 832.71809,-398.47534 839.68427,-410.53387 L 852.35011,-432.45845 L 901.86349,-433.47188 L 951.3765,-434.48534 L 1089.8167,-274.58156 C 1165.9586,-186.63466 1232.0057,-110.24262 1236.5883,-104.8215 L 1244.92,-94.96494 L 1211.01,-71.575493 C 1192.3588,-58.71114 1146.5441,-27.540553 1109.1992,-2.3074446 L 1041.2987,43.570959 L 999.57625,-5.1928617 C 976.05995,-32.677636 955.46141,-53.60235 952.37225,-53.144632 C 947.56016,-52.431722 946.77709,-15.8712 945.95638,246.34001 L 945.02131,545.01265 L 628.98461,545.01265 L 312.94792,545.01265 L 312.0132,246.59437 z" id="path3155"/>
    <path style="opacity:1;fill:#ff69b4;fill-opacity:0;fill-rule:evenodd;stroke:none;stroke-width:4;stroke-miterlimit:4;stroke-dasharray:4, 4;stroke-dashoffset:0;stroke-opacity:1" d="M 312.0132,246.59437 C 311.3288,28.175881 309.96765,-52.193834 306.93548,-53.204347 C 304.65716,-53.963625 284.2607,-33.135264 261.61043,-6.9189102 C 238.96013,19.297444 218.95686,40.747182 217.15833,40.747182 C 215.36013,40.747182 168.81899,10.275259 113.73347,-26.968208 L 13.577948,-94.683687 L 160.50081,-264.45361 L 307.42402,-434.22371 L 356.75435,-434.14588 L 406.08467,-434.06805 L 418.874,-411.33879 C 434.47371,-383.61442 479.31644,-338.12314 507.27028,-321.66333 C 542.32404,-301.0233 577.02371,-290.69054 617.40332,-288.86868 C 663.62034,-286.78336 689.88234,-292.18901 732.68498,-312.59762 C 761.03675,-326.11585 772.14558,-334.09333 796.98797,-358.77412 C 813.50484,-375.18351 832.71809,-398.47534 839.68427,-410.53387 L 852.35011,-432.45845 L 901.86349,-433.47188 L 951.3765,-434.48534 L 1089.8167,-274.58156 C 1165.9586,-186.63466 1232.0057,-110.24262 1236.5883,-104.8215 L 1244.92,-94.96494 L 1211.01,-71.575493 C 1192.3588,-58.71114 1146.5441,-27.540553 1109.1992,-2.3074446 L 1041.2987,43.570959 L 999.57625,-5.1928617 C 976.05995,-32.677636 955.46141,-53.60235 952.37225,-53.144632 C 947.56016,-52.431722 946.77709,-15.8712 945.95638,246.34001 L 945.02131,545.01265 L 628.98461,545.01265 L 312.94792,545.01265 L 312.0132,246.59437 z" id="path3157"/>
    <path style="opacity:1;fill:#ff69b4;fill-opacity:0;fill-rule:evenodd;stroke:none;stroke-width:4;stroke-miterlimit:4;stroke-dasharray:4, 4;stroke-dashoffset:0;stroke-opacity:1" d="M 312.90517,247.99945 C 312.90517,-2.0847188 312.08227,-51.561395 307.89613,-53.16769 C 303.84009,-54.724235 250.22132,2.7489869 222.72131,38.129942 C 219.03616,42.870838 203.50478,33.607437 116.02057,-25.509203 L 13.632394,-94.696835 L 159.67096,-263.37525 L 305.70952,-432.05365 L 356.46201,-432.05365 L 407.21414,-432.05365 L 418.95769,-411.04259 C 425.54383,-399.25893 444.6204,-376.39104 462.39577,-358.9717 C 512.02389,-310.33771 563.22548,-288.60894 628.98461,-288.27555 C 668.3692,-288.07596 693.38442,-293.53036 727.64526,-309.78835 C 774.62526,-332.08193 817.65992,-371.53624 842.0693,-414.69296 L 851.88456,-432.04631 L 903.04193,-431.93412 L 954.19929,-431.82191 L 1099.5754,-263.54319 L 1244.9514,-95.264468 L 1231.1229,-85.35755 C 1216.2273,-74.686118 1051.9866,36.355474 1044.9664,40.501217 C 1042.3781,42.029667 1024.1471,23.861156 998.1632,-6.141789 C 969.95651,-38.710766 953.82256,-54.606568 950.3318,-53.267011 C 945.80328,-51.529308 945.06406,-9.2347333 945.06406,247.99945 L 945.06406,547.24449 L 628.98461,547.24449 L 312.90517,547.24449 L 312.90517,247.99945 z" id="path3159"/>
    <path style="opacity:1;fill:#ff69b3;fill-opacity:0;fill-rule:evenodd;stroke:none;stroke-width:4;stroke-miterlimit:4;stroke-dasharray:4, 4;stroke-dashoffset:0;stroke-opacity:1" d="M 312.90517,247.99945 C 312.90517,-2.0847188 312.08227,-51.561395 307.89613,-53.16769 C 303.84009,-54.724235 250.22132,2.7489869 222.72131,38.129942 C 219.03616,42.870838 203.50478,33.607437 116.02057,-25.509203 L 13.632394,-94.696835 L 159.67096,-263.37525 L 305.70952,-432.05365 L 356.46201,-432.05365 L 407.21414,-432.05365 L 418.95769,-411.04259 C 425.54383,-399.25893 444.6204,-376.39104 462.39577,-358.9717 C 512.02389,-310.33771 563.22548,-288.60894 628.98461,-288.27555 C 668.3692,-288.07596 693.38442,-293.53036 727.64526,-309.78835 C 774.62526,-332.08193 817.65992,-371.53624 842.0693,-414.69296 L 851.88456,-432.04631 L 903.04193,-431.93412 L 954.19929,-431.82191 L 1099.5754,-263.54319 L 1244.9514,-95.264468 L 1231.1229,-85.35755 C 1216.2273,-74.686118 1051.9866,36.355474 1044.9664,40.501217 C 1042.3781,42.029667 1024.1471,23.861156 998.1632,-6.141789 C 969.95651,-38.710766 953.82256,-54.606568 950.3318,-53.267011 C 945.80328,-51.529308 945.06406,-9.2347333 945.06406,247.99945 L 945.06406,547.24449 L 628.98461,547.24449 L 312.90517,547.24449 L 312.90517,247.99945 z" id="path3161"/>
  </g>
</svg>