<?xml version="1.0" encoding="UTF-8" standalone="no"?>
<!-- Created with Inkscape (http://www.inkscape.org/) -->
<svg
   xmlns:svg="http://www.w3.org/2000/svg"
   xmlns="http://www.w3.org/2000/svg"
   version="1.0"
   width="400"
   height="400"
   viewBox="0 0 400 400"
   id="svg5272"
   xml:space="preserve"><defs
   id="defs5384" />
	
		<g
   transform="translate(30.68783,28.57143)"
   id="Ebene_1">
			<g
   id="g5277">
				<path
   d="M 168.597,168.597 C 168.597,168.597 198.039,152.229 198.039,84.298 C 198.039,16.368 168.597,0 168.597,0 C 168.597,0 139.156,16.368 139.156,84.298 C 139.156,152.229 168.597,168.597 168.597,168.597 z "
   style="fill:#f59ece"
   id="path5279" />
				<path
   d="M 168.597,168.597 C 168.597,168.597 185.91,139.701 151.945,80.871 C 117.98,22.042 84.299,22.588 84.299,22.588 C 84.299,22.588 66.987,51.484 100.951,110.313 C 134.915,169.142 168.597,168.597 168.597,168.597 z "
   style="fill:#f59ece"
   id="path5281" />
				<path
   d="M 168.597,168.597 C 168.597,168.597 169.142,134.916 110.313,100.951 C 51.484,66.985 22.587,84.298 22.587,84.298 C 22.587,84.298 22.042,117.98 80.871,151.944 C 139.701,185.909 168.597,168.597 168.597,168.597 z "
   style="fill:#f59ece"
   id="path5283" />
				<path
   d="M 168.597,168.597 C 168.597,168.597 152.229,139.156 84.299,139.156 C 16.369,139.155 0,168.597 0,168.597 C 0,168.597 16.369,198.038 84.298,198.038 C 152.229,198.038 168.597,168.597 168.597,168.597 z "
   style="fill:#f59ece"
   id="path5285" />
				<path
   d="M 168.597,168.597 C 168.597,168.597 139.701,151.285 80.872,185.249 C 22.043,219.214 22.588,252.895 22.588,252.895 C 22.588,252.895 51.484,270.207 110.314,236.243 C 169.144,202.279 168.597,168.597 168.597,168.597 z "
   style="fill:#f59ece"
   id="path5287" />
				<path
   d="M 168.597,168.597 C 168.597,168.597 134.916,168.052 100.951,226.882 C 66.986,285.71 84.299,314.607 84.299,314.607 C 84.299,314.607 117.98,315.152 151.945,256.324 C 185.91,197.493 168.597,168.597 168.597,168.597 z "
   style="fill:#f59ece"
   id="path5289" />
				<path
   d="M 168.597,168.597 C 168.597,168.597 139.156,184.966 139.156,252.895 C 139.156,320.824 168.597,337.194 168.597,337.194 C 168.597,337.194 198.039,320.825 198.039,252.895 C 198.039,184.965 168.597,168.597 168.597,168.597 z "
   style="fill:#f59ece"
   id="path5291" />
				<path
   d="M 168.597,168.597 C 168.597,168.597 151.285,197.493 185.25,256.323 C 219.215,315.151 252.896,314.606 252.896,314.606 C 252.896,314.606 270.208,285.71 236.243,226.881 C 202.278,168.052 168.597,168.597 168.597,168.597 z "
   style="fill:#f59ece"
   id="path5293" />
				<path
   d="M 168.597,168.597 C 168.597,168.597 168.052,202.278 226.881,236.243 C 285.711,270.208 314.607,252.895 314.607,252.895 C 314.607,252.895 315.153,219.213 256.323,185.249 C 197.494,151.284 168.597,168.597 168.597,168.597 z "
   style="fill:#f59ece"
   id="path5295" />
				<path
   d="M 168.597,168.597 C 168.597,168.597 184.966,198.038 252.896,198.038 C 320.826,198.038 337.194,168.597 337.194,168.597 C 337.194,168.597 320.826,139.156 252.896,139.156 C 184.965,139.155 168.597,168.597 168.597,168.597 z "
   style="fill:#f59ece"
   id="path5297" />
				<path
   d="M 168.597,168.597 C 168.597,168.597 197.494,185.909 256.322,151.945 C 315.152,117.98 314.606,84.299 314.606,84.299 C 314.606,84.299 285.71,66.987 226.88,100.952 C 168.051,134.916 168.597,168.597 168.597,168.597 z "
   style="fill:#f59ece"
   id="path5299" />
				<path
   d="M 168.597,168.597 C 168.597,168.597 202.278,169.142 236.243,110.313 C 270.209,51.484 252.896,22.588 252.896,22.588 C 252.896,22.588 219.214,22.042 185.25,80.871 C 151.284,139.7 168.597,168.597 168.597,168.597 z "
   style="fill:#f59ece"
   id="path5301" />
			</g>
			<g
   id="g5303">
				<path
   d="M 168.597,168.597 C 168.597,168.597 189.139,148.709 174.216,93.017 C 159.293,37.326 131.56,30.373 131.56,30.373 C 131.56,30.373 111.018,50.26 125.941,105.952 C 140.864,161.645 168.597,168.597 168.597,168.597 z "
   style="fill:#f9140d"
   id="path5305" />
				<path
   d="M 168.597,168.597 C 168.597,168.597 176.443,141.103 135.674,100.333 C 94.905,59.563 67.41,67.41 67.41,67.41 C 67.41,67.41 59.564,94.903 100.334,135.673 C 141.104,176.442 168.597,168.597 168.597,168.597 z "
   style="fill:#f9140d"
   id="path5307" />
				<path
   d="M 168.597,168.597 C 168.597,168.597 161.645,140.864 105.953,125.941 C 50.261,111.019 30.373,131.56 30.373,131.56 C 30.373,131.56 37.325,159.293 93.018,174.216 C 148.709,189.137 168.597,168.597 168.597,168.597 z "
   style="fill:#f9140d"
   id="path5309" />
				<path
   d="M 168.597,168.597 C 168.597,168.597 148.71,148.055 93.017,162.978 C 37.325,177.901 30.372,205.634 30.372,205.634 C 30.372,205.634 50.259,226.175 105.952,211.253 C 161.645,196.329 168.597,168.597 168.597,168.597 z "
   style="fill:#f9140d"
   id="path5311" />
				<path
   d="M 168.597,168.597 C 168.597,168.597 141.104,160.751 100.334,201.52 C 59.564,242.29 67.41,269.784 67.41,269.784 C 67.41,269.784 94.904,277.63 135.673,236.86 C 176.442,196.09 168.597,168.597 168.597,168.597 z "
   style="fill:#f9140d"
   id="path5313" />
				<path
   d="M 168.597,168.597 C 168.597,168.597 140.864,175.549 125.941,231.241 C 111.019,286.934 131.56,306.821 131.56,306.821 C 131.56,306.821 159.293,299.868 174.216,244.176 C 189.138,188.483 168.597,168.597 168.597,168.597 z "
   style="fill:#f9140d"
   id="path5315" />
				<path
   d="M 168.597,168.597 C 168.597,168.597 148.055,188.485 162.978,244.177 C 177.901,299.869 205.634,306.822 205.634,306.822 C 205.634,306.822 226.175,286.935 211.253,231.242 C 196.33,175.549 168.597,168.597 168.597,168.597 z "
   style="fill:#f9140d"
   id="path5317" />
				<path
   d="M 168.597,168.597 C 168.597,168.597 160.751,196.091 201.521,236.86 C 242.291,277.63 269.784,269.784 269.784,269.784 C 269.784,269.784 277.63,242.29 236.86,201.52 C 196.09,160.751 168.597,168.597 168.597,168.597 z "
   style="fill:#f9140d"
   id="path5319" />
				<path
   d="M 168.597,168.597 C 168.597,168.597 175.549,196.329 231.242,211.253 C 286.933,226.175 306.821,205.634 306.821,205.634 C 306.821,205.634 299.869,177.902 244.177,162.978 C 188.484,148.055 168.597,168.597 168.597,168.597 z "
   style="fill:#f9140d"
   id="path5321" />
				<path
   d="M 168.597,168.597 C 168.597,168.597 188.484,189.138 244.177,174.215 C 299.868,159.293 306.821,131.56 306.821,131.56 C 306.821,131.56 286.933,111.019 231.242,125.941 C 175.549,140.863 168.597,168.597 168.597,168.597 z "
   style="fill:#f9140d"
   id="path5323" />
				<path
   d="M 168.597,168.597 C 168.597,168.597 196.09,176.442 236.86,135.673 C 277.631,94.903 269.784,67.41 269.784,67.41 C 269.784,67.41 242.291,59.563 201.521,100.333 C 160.751,141.104 168.597,168.597 168.597,168.597 z "
   style="fill:#f9140d"
   id="path5325" />
				<path
   d="M 168.597,168.597 C 168.597,168.597 196.329,161.645 211.253,105.952 C 226.175,50.26 205.634,30.373 205.634,30.373 C 205.634,30.373 177.9,37.325 162.978,93.017 C 148.055,148.709 168.597,168.597 168.597,168.597 z "
   style="fill:#f9140d"
   id="path5327" />
			</g>
			<g
   id="g5329">
				<path
   d="M 168.597,168.597 C 168.597,168.597 179.803,149.894 157.819,111.817 C 135.835,73.74 114.035,74.092 114.035,74.092 C 114.035,74.092 102.829,92.795 124.813,130.872 C 146.797,168.949 168.597,168.597 168.597,168.597 z "
   style="fill:#7e0e07"
   id="path5331" />
				<path
   d="M 168.597,168.597 C 168.597,168.597 168.951,146.797 130.873,124.813 C 92.796,102.83 74.093,114.035 74.093,114.035 C 74.093,114.035 73.74,135.836 111.817,157.819 C 149.894,179.803 168.597,168.597 168.597,168.597 z "
   style="fill:#7e0e07"
   id="path5333" />
				<path
   d="M 168.597,168.597 C 168.597,168.597 158.003,149.541 114.035,149.541 C 70.067,149.541 59.473,168.597 59.473,168.597 C 59.473,168.597 70.067,187.653 114.035,187.653 C 158.002,187.653 168.597,168.597 168.597,168.597 z "
   style="fill:#7e0e07"
   id="path5335" />
				<path
   d="M 168.597,168.597 C 168.597,168.597 149.894,157.391 111.817,179.376 C 73.74,201.358 74.093,223.159 74.093,223.159 C 74.093,223.159 92.796,234.364 130.873,212.382 C 168.95,190.397 168.597,168.597 168.597,168.597 z "
   style="fill:#7e0e07"
   id="path5337" />
				<path
   d="M 168.597,168.597 C 168.597,168.597 146.797,168.244 124.814,206.321 C 102.83,244.399 114.036,263.1 114.036,263.1 C 114.036,263.1 135.836,263.454 157.82,225.375 C 179.802,187.299 168.597,168.597 168.597,168.597 z "
   style="fill:#7e0e07"
   id="path5339" />
				<path
   d="M 168.597,168.597 C 168.597,168.597 149.542,179.192 149.542,223.159 C 149.542,267.126 168.598,277.721 168.598,277.721 C 168.598,277.721 187.654,267.125 187.654,223.159 C 187.654,179.193 168.597,168.597 168.597,168.597 z "
   style="fill:#7e0e07"
   id="path5341" />
				<path
   d="M 168.597,168.597 C 168.597,168.597 157.392,187.3 179.375,225.376 C 201.359,263.454 223.159,263.101 223.159,263.101 C 223.159,263.101 234.365,244.4 212.381,206.322 C 190.397,168.244 168.597,168.597 168.597,168.597 z "
   style="fill:#7e0e07"
   id="path5343" />
				<path
   d="M 168.597,168.597 C 168.597,168.597 168.244,190.397 206.322,212.382 C 244.398,234.364 263.101,223.159 263.101,223.159 C 263.101,223.159 263.455,201.358 225.376,179.376 C 187.3,157.391 168.597,168.597 168.597,168.597 z "
   style="fill:#7e0e07"
   id="path5345" />
				<path
   d="M 168.597,168.597 C 168.597,168.597 179.191,187.653 223.16,187.653 C 267.127,187.653 277.722,168.597 277.722,168.597 C 277.722,168.597 267.127,149.541 223.16,149.541 C 179.191,149.541 168.597,168.597 168.597,168.597 z "
   style="fill:#7e0e07"
   id="path5347" />
				<path
   d="M 168.597,168.597 C 168.597,168.597 187.3,179.802 225.376,157.819 C 263.454,135.836 263.101,114.035 263.101,114.035 C 263.101,114.035 244.398,102.83 206.322,124.813 C 168.244,146.797 168.597,168.597 168.597,168.597 z "
   style="fill:#7e0e07"
   id="path5349" />
				<path
   d="M 168.597,168.597 C 168.597,168.597 190.397,168.95 212.38,130.872 C 234.364,92.795 223.159,74.092 223.159,74.092 C 223.159,74.092 201.358,73.739 179.374,111.817 C 157.392,149.894 168.597,168.597 168.597,168.597 z "
   style="fill:#7e0e07"
   id="path5351" />
				<path
   d="M 168.597,168.597 C 168.597,168.597 187.653,158.002 187.653,114.035 C 187.653,70.066 168.597,59.473 168.597,59.473 C 168.597,59.473 149.541,70.067 149.541,114.035 C 149.542,158.002 168.597,168.597 168.597,168.597 z "
   style="fill:#7e0e07"
   id="path5353" />
			</g>
			<g
   id="g5355">
				<path
   d="M 168.597,168.597 C 168.597,168.597 172.933,153.403 150.403,130.872 C 127.872,108.342 112.678,112.678 112.678,112.678 C 112.678,112.678 108.342,127.871 130.873,150.403 C 153.403,172.933 168.597,168.597 168.597,168.597 z "
   style="fill:#9f0e33"
   id="path5357" />
				<path
   d="M 168.597,168.597 C 168.597,168.597 164.755,153.271 133.978,145.024 C 103.201,136.778 92.21,148.129 92.21,148.129 C 92.21,148.129 96.052,163.455 126.829,171.702 C 157.607,179.948 168.597,168.597 168.597,168.597 z "
   style="fill:#9f0e33"
   id="path5359" />
				<path
   d="M 168.597,168.597 C 168.597,168.597 157.607,157.245 126.83,165.492 C 96.053,173.739 92.21,189.066 92.21,189.066 C 92.21,189.066 103.2,200.418 133.978,192.171 C 164.755,183.922 168.597,168.597 168.597,168.597 z "
   style="fill:#9f0e33"
   id="path5361" />
				<path
   d="M 168.597,168.597 C 168.597,168.597 153.403,164.261 130.872,186.792 C 108.341,209.323 112.677,224.517 112.677,224.517 C 112.677,224.517 127.871,228.853 150.402,206.322 C 172.933,183.792 168.597,168.597 168.597,168.597 z "
   style="fill:#9f0e33"
   id="path5363" />
				<path
   d="M 168.597,168.597 C 168.597,168.597 153.271,172.439 145.024,203.216 C 136.777,233.993 148.129,244.984 148.129,244.984 C 148.129,244.984 163.456,241.142 171.702,210.365 C 179.949,179.586 168.597,168.597 168.597,168.597 z "
   style="fill:#9f0e33"
   id="path5365" />
				<path
   d="M 168.597,168.597 C 168.597,168.597 157.245,179.587 165.492,210.364 C 173.739,241.141 189.065,244.983 189.065,244.983 C 189.065,244.983 200.418,233.993 192.169,203.215 C 183.923,172.438 168.597,168.597 168.597,168.597 z "
   style="fill:#9f0e33"
   id="path5367" />
				<path
   d="M 168.597,168.597 C 168.597,168.597 164.262,183.792 186.792,206.321 C 209.322,228.852 224.516,224.516 224.516,224.516 C 224.516,224.516 228.853,209.323 206.323,186.791 C 183.791,164.261 168.597,168.597 168.597,168.597 z "
   style="fill:#9f0e33"
   id="path5369" />
				<path
   d="M 168.597,168.597 C 168.597,168.597 172.439,183.923 203.217,192.171 C 233.994,200.417 244.985,189.066 244.985,189.066 C 244.985,189.066 241.143,173.739 210.366,165.492 C 179.587,157.245 168.597,168.597 168.597,168.597 z "
   style="fill:#9f0e33"
   id="path5371" />
				<path
   d="M 168.597,168.597 C 168.597,168.597 179.588,179.948 210.365,171.702 C 241.142,163.455 244.984,148.129 244.984,148.129 C 244.984,148.129 233.994,136.777 203.216,145.024 C 172.439,153.271 168.597,168.597 168.597,168.597 z "
   style="fill:#9f0e33"
   id="path5373" />
				<path
   d="M 168.597,168.597 C 168.597,168.597 183.79,172.933 206.321,150.402 C 228.852,127.872 224.515,112.678 224.515,112.678 C 224.515,112.678 209.322,108.342 186.791,130.872 C 164.261,153.402 168.597,168.597 168.597,168.597 z "
   style="fill:#9f0e33"
   id="path5375" />
				<path
   d="M 168.597,168.597 C 168.597,168.597 183.923,164.755 192.169,133.978 C 200.416,103.201 189.065,92.21 189.065,92.21 C 189.065,92.21 173.739,96.052 165.492,126.829 C 157.245,157.606 168.597,168.597 168.597,168.597 z "
   style="fill:#9f0e33"
   id="path5377" />
				<path
   d="M 168.597,168.597 C 168.597,168.597 179.949,157.606 171.702,126.829 C 163.455,96.052 148.128,92.21 148.128,92.21 C 148.128,92.21 136.776,103.2 145.023,133.978 C 153.271,164.755 168.597,168.597 168.597,168.597 z "
   style="fill:#9f0e33"
   id="path5379" />
			</g>
			<circle
   cx="168.597"
   cy="168.597"
   r="40.012001"
   style="fill:#de8012"
   id="circle5381" /> 
		</g>
	</svg>