/* XPM */
static char * folder_horizontal_xpm[] = {
"16 16 57 1",
" 	c None",
".	c #CC8800",
"+	c #CA8700",
"@	c #FDFEFE",
"#	c #EEF5F5",
"$	c #DDEBEB",
"%	c #41C9FE",
"&	c #2EB6F4",
"*	c #C78500",
"=	c #FFF4B0",
"-	c #FFF1AD",
";	c #FEF0AB",
">	c #FDEEA9",
",	c #FCECA7",
"'	c #FBEAA5",
")	c #FAE8A2",
"!	c #F9E6A0",
"~	c #F8E39D",
"{	c #F7E19A",
"]	c #F6DF98",
"^	c #F7E099",
"/	c #C48300",
"(	c #FDEBA6",
"_	c #FCE9A4",
":	c #FBE7A2",
"<	c #FAE59F",
"[	c #F8E39C",
"}	c #F6DE97",
"|	c #F4DC94",
"1	c #F3D991",
"2	c #F1D78E",
"3	c #F4DA93",
"4	c #C18100",
"5	c #F0D48B",
"6	c #F3D890",
"7	c #BD7F00",
"8	c #F9E59F",
"9	c #BA7C00",
"0	c #F6E099",
"a	c #F3DA92",
"b	c #B67900",
"c	c #F4DB94",
"d	c #F0D58D",
"e	c #B27600",
"f	c #F2D78F",
"g	c #EDD087",
"h	c #AD7400",
"i	c #F0D38A",
"j	c #EBCC82",
"k	c #A97000",
"l	c #EECF86",
"m	c #E8C87D",
"n	c #9A6700",
"o	c #F0CF86",
"p	c #EDCB82",
"q	c #6A4700",
"r	c #8C5D00",
"                ",
"       .....    ",
" ++++++@#$%&+   ",
"*=-;>,')!~{]^*  ",
"/-(_:<[{}|123/  ",
"4;_:<[{}|12564  ",
"78]]]]]]]]]]87  ",
"90aaaaaaaaaa09  ",
"bcddddddddddcb  ",
"efggggggggggfe  ",
"hijjjjjjjjjjih  ",
"klmmmmmmmmmmlk  ",
"noppppppppppon  ",
"qrrrrrrrrrrrrq  ",
"                ",
"                "};
