/* XPM */
static char * folder_horizontal_plus_xpm[] = {
"16 16 80 1",
" 	c None",
".	c #CC8800",
"+	c #CA8700",
"@	c #FDFEFE",
"#	c #EEF5F5",
"$	c #DDEBEB",
"%	c #41C9FE",
"&	c #2EB6F4",
"*	c #C78500",
"=	c #FFF4B0",
"-	c #FFF1AD",
";	c #FEF0AB",
">	c #FDEEA9",
",	c #FCECA7",
"'	c #FBEAA5",
")	c #FAE8A2",
"!	c #F9E6A0",
"~	c #F8E39D",
"{	c #F7E19A",
"]	c #F6DF98",
"^	c #F7E099",
"/	c #C48300",
"(	c #FDEBA6",
"_	c #FCE9A4",
":	c #FBE7A2",
"<	c #FAE59F",
"[	c #F8E39C",
"}	c #F6DE97",
"|	c #F4DC94",
"1	c #F3D991",
"2	c #F1D78E",
"3	c #F4DA93",
"4	c #C18100",
"5	c #F0D48B",
"6	c #F3D890",
"7	c #BD7F00",
"8	c #F9E59F",
"9	c #BA7C00",
"0	c #F6E099",
"a	c #F3DA92",
"b	c #61BC47",
"c	c #30B22E",
"d	c #B67900",
"e	c #F4DB94",
"f	c #F0D58D",
"g	c #30AD2C",
"h	c #64EE75",
"i	c #B27600",
"j	c #60B344",
"k	c #2FA729",
"l	c #55EB66",
"m	c #5EB040",
"n	c #EDD087",
"o	c #F2D78F",
"p	c #AD7400",
"q	c #30A128",
"r	c #41E752",
"s	c #2FA026",
"t	c #EBCC82",
"u	c #F0D38A",
"v	c #A97000",
"w	c #5FA73E",
"x	c #2E9824",
"y	c #2CE23D",
"z	c #5CA43A",
"A	c #E8C87D",
"B	c #EECF86",
"C	c #9A6700",
"D	c #F0CF86",
"E	c #EDCB82",
"F	c #2F9123",
"G	c #1ADF2B",
"H	c #6A4700",
"I	c #875900",
"J	c #734C00",
"K	c #305503",
"L	c #1C6604",
"M	c #704A00",
"N	c #815600",
"O	c #8C5D00",
"                ",
"       .....    ",
" ++++++@#$%&+   ",
"*=-;>,')!~{]^*  ",
"/-(_:<[{}|123/  ",
"4;_:<[{}|12564  ",
"78]]]]]]]]]]87  ",
"90abcbaaaaaa09  ",
"defghgffffffed  ",
"ijkklkkmnnnnoi  ",
"pqrrrrrsttttup  ",
"vwxxyxxzAAAABv  ",
"CDEFGFEEEEEEDC  ",
"HIJKLKMNOOOOOH  ",
"                ",
"                "};
