/* XPM */
static char * folder_horizontal_plus_open_xpm[] = {
"16 16 101 2",
"  	c None",
". 	c #CC8800",
"+ 	c #CA8700",
"@ 	c #FDFEFE",
"# 	c #EEF5F5",
"$ 	c #DDEBEB",
"% 	c #41C9FE",
"& 	c #2EB6F4",
"* 	c #C78500",
"= 	c #FFF4B0",
"- 	c #FFF1AD",
"; 	c #FEF0AB",
"> 	c #FDEEA9",
", 	c #FCECA7",
"' 	c #FBEAA5",
") 	c #FAE8A2",
"! 	c #F9E6A0",
"~ 	c #F8E39D",
"{ 	c #F7E19A",
"] 	c #F6DF98",
"^ 	c #F7E099",
"/ 	c #C48300",
"( 	c #FDEBA6",
"_ 	c #FCE9A4",
": 	c #FBE7A2",
"< 	c #FAE59F",
"[ 	c #F8E39C",
"} 	c #F6DE97",
"| 	c #F4DC94",
"1 	c #F3D991",
"2 	c #F1D78E",
"3 	c #F4DA93",
"4 	c #C18100",
"5 	c #F0D48B",
"6 	c #F3D890",
"7 	c #BD7F00",
"8 	c #E9C264",
"9 	c #E2B54F",
"0 	c #E2B44D",
"a 	c #E1B34C",
"b 	c #E0B24B",
"c 	c #DFB149",
"d 	c #DFB048",
"e 	c #DEAE47",
"f 	c #DDAD45",
"g 	c #DDAC44",
"h 	c #DFAE46",
"i 	c #C68400",
"j 	c #CB8700",
"k 	c #BA7C00",
"l 	c #F4DD8F",
"m 	c #E5C063",
"n 	c #64C44F",
"o 	c #32B632",
"p 	c #FAEEA8",
"q 	c #EFD886",
"r 	c #B67900",
"s 	c #E8CA74",
"t 	c #30AE2C",
"u 	c #64EE75",
"v 	c #F1D78F",
"w 	c #F2D891",
"x 	c #DAB14F",
"y 	c #B27600",
"z 	c #56A42B",
"A 	c #2FA729",
"B 	c #55EB66",
"C 	c #5FB141",
"D 	c #EED289",
"E 	c #F1D890",
"F 	c #C28E22",
"G 	c #AD7400",
"H 	c #28971A",
"I 	c #41E752",
"J 	c #2FA027",
"K 	c #EBCD83",
"L 	c #EBCD81",
"M 	c #A86F00",
"N 	c #A97000",
"O 	c #52982A",
"P 	c #2F9824",
"Q 	c #2E9824",
"R 	c #2CE23D",
"S 	c #5DA53A",
"T 	c #E9C97E",
"U 	c #D6AF57",
"V 	c #9A6700",
"W 	c #DAB76A",
"X 	c #EDCC82",
"Y 	c #2F9123",
"Z 	c #1ADF2B",
"` 	c #EECD83",
" .	c #B98D31",
"..	c #6A4700",
"+.	c #875900",
"@.	c #734C00",
"#.	c #305503",
"$.	c #1C6604",
"%.	c #704A00",
"&.	c #815600",
"*.	c #8C5D00",
"                                ",
"              . . . . .         ",
"  + + + + + + @ # $ % & +       ",
"* = - ; > , ' ) ! ~ { ] ^ *     ",
"/ - ( _ : < [ { } | 1 2 3 /     ",
"4 ; _ : < [ { } | 1 2 5 6 4     ",
"7 , 8 9 0 a b c d e f g h i j   ",
"k l m n o n p p p p p p p p q   ",
"r s s t u t v v v v v v v w x   ",
"y z A A B A A C D D D D D E F   ",
"G H I I I I I J K K K K K L M   ",
"N O P Q R Q Q S T T T T T U     ",
"V W X Y Z Y X X X X X X `  .    ",
"..+.@.#.$.#.%.&.*.*.*.*.*...    ",
"                                ",
"                                "};
