/* XPM */
static /*const*/ char * preview_next_xpm[] = {
"16 16 50 1",
" 	c None",
".	c #409EE9",
"+	c #3C9AE5",
"@	c #93DFFF",
"#	c #3895E0",
"$	c #99E5FF",
"%	c #89D5FC",
"&	c #338ED9",
"*	c #84D0F9",
"=	c #95E1FE",
"-	c #81CDF8",
";	c #2E87D2",
">	c #7DC9F6",
",	c #68B4EF",
"'	c #90DCFC",
")	c #79C5F5",
"!	c #287FCA",
"~	c #7AC6F5",
"{	c #66B2EE",
"]	c #61ADE9",
"^	c #84D0F5",
"/	c #5EAADC",
"(	c #2277C2",
"_	c #73BFF0",
":	c #509CD8",
"<	c #4591CD",
"[	c #4490CC",
"}	c #74C0E9",
"|	c #59A5D9",
"1	c #1C6EB9",
"2	c #58AEE2",
"3	c #3A95D4",
"4	c #6ABDEA",
"5	c #4DA5DD",
"6	c #1666B1",
"7	c #44B0E9",
"8	c #279FE2",
"9	c #59BEEF",
"0	c #39AAE7",
"a	c #105FAA",
"b	c #2FB6F4",
"c	c #46C0F6",
"d	c #23B0F2",
"e	c #0B58A3",
"f	c #33C2FD",
"g	c #11B5FD",
"h	c #06529D",
"i	c #0DB6FF",
"j	c #023A73",
"k	c #024D98",
"                ",
"   .      ...   ",
"   ++     +@+   ",
"   #$#    #%#   ",
"   &*=&   &-&   ",
"   ;>,';  ;);   ",
"   !~{]^! !/!   ",
"   (_:<[}((|(   ",
"   123341 151   ",
"   67896  606   ",
"   abca   ada   ",
"   efe    ege   ",
"   hh     hih   ",
"   j      jkj   ",
"                ",
"                "};
