/* XPM */
static char * preview_end_xpm[] = {
"16 16 52 1",
" 	c None",
".	c #3F9EE9",
"+	c #3B99E4",
"@	c #92DEFF",
"#	c #3692DD",
"$	c #99E5FF",
"%	c #97E3FF",
"&	c #89D5FC",
"*	c #308AD5",
"=	c #87D3FA",
"-	c #96E2FF",
";	c #84D0FA",
">	c #91DDFD",
",	c #81CDF9",
"'	c #2981CC",
")	c #80CCF8",
"!	c #6CB8F1",
"~	c #6FBBEA",
"{	c #509CD7",
"]	c #7BC7EE",
"^	c #5EAADD",
"/	c #2277C2",
"(	c #7AC6F5",
"_	c #67B3EE",
":	c #61AEEA",
"<	c #80CDF2",
"[	c #5DABDC",
"}	c #4391CD",
"|	c #6CB9E5",
"1	c #55A3D8",
"2	c #1B6EB9",
"3	c #78C4F4",
"4	c #52A9E7",
"5	c #71C7F1",
"6	c #4DACE2",
"7	c #3499D9",
"8	c #5CB8E8",
"9	c #44A5DF",
"0	c #1464AF",
"a	c #56BBF2",
"b	c #5DC6F5",
"c	c #34B1EE",
"d	c #46BBF1",
"e	c #2AABEC",
"f	c #0D5BA6",
"g	c #49C7FC",
"h	c #30BEFB",
"i	c #13B3FA",
"j	c #08549F",
"k	c #0CB6FF",
"l	c #033B73",
"m	c #034E99",
"                ",
"                ",
" .    .    ...  ",
" ++   ++   +@+  ",
" #$#  #%#  #&#  ",
" *=-* *;>* *,*  ",
" ')!>''~{]''^'  ",
" /(_:</[}}|/1/  ",
" 2345226782292  ",
" 0ab0 0cd0 0e0  ",
" fgf  fhf  fif  ",
" jj   jj   jkj  ",
" l    l    lml  ",
"                ",
"                ",
"                "};
