/* XPM */
static char * preview_pause_xpm[] = {
"16 16 43 1",
" 	c None",
".	c #3F9EE9",
"+	c #3B99E4",
"@	c #94E0FF",
"#	c #8EDAFE",
"$	c #93DFFF",
"%	c #3692DD",
"&	c #89D5FB",
"*	c #78C4F7",
"=	c #86D2FB",
"-	c #308AD5",
";	c #7FCBF7",
">	c #6AB6F1",
",	c #72BEEC",
"'	c #59A5E0",
")	c #2981CC",
"!	c #79C5F3",
"~	c #59A5E1",
"{	c #5FABDD",
"]	c #4490CC",
"^	c #2277C2",
"/	c #61B3E3",
"(	c #3F93D0",
"_	c #56A8DC",
":	c #1B6EB9",
"<	c #4EB2E8",
"[	c #2D9CDD",
"}	c #44ABE5",
"|	c #1464AF",
"1	c #37B6F2",
"2	c #18A7ED",
"3	c #2CB1F0",
"4	c #0D5BA6",
"5	c #22BAFC",
"6	c #06AFFB",
"7	c #16B5FB",
"8	c #08549F",
"9	c #1FBDFF",
"0	c #11B8FF",
"a	c #10B8FF",
"b	c #09B5FF",
"c	c #033B73",
"d	c #034E99",
"                ",
"                ",
"   .... ....    ",
"   +@#+ +$#+    ",
"   %&*% %=*%    ",
"   -;>- -,'-    ",
"   )!~) ){])    ",
"   ^/(^ ^_(^    ",
"   :<[: :}[:    ",
"   |12| |32|    ",
"   4564 4764    ",
"   8908 8ab8    ",
"   cddc cddc    ",
"                ",
"                ",
"                "};
