/* XPM */
static char * video_xpm[] = {
"32 32 155 2",
"  	c None",
". 	c #0F1723",
"+ 	c #FFFFFF",
"@ 	c #161E29",
"# 	c #1E2530",
"$ 	c #19222C",
"% 	c #0B1922",
"& 	c #00121A",
"* 	c #101C25",
"= 	c #0C1922",
"- 	c #262D37",
"; 	c #252D36",
"> 	c #1F2832",
", 	c #0C1B23",
"' 	c #121F28",
") 	c #0D1B24",
"! 	c #2D353D",
"~ 	c #2D343D",
"{ 	c #262E37",
"] 	c #263038",
"^ 	c #252F37",
"/ 	c #273038",
"( 	c #101E26",
"_ 	c #353C44",
": 	c #122028",
"< 	c #3D444B",
"[ 	c #3C434A",
"} 	c #333C43",
"| 	c #15232B",
"1 	c #444B51",
"2 	c #394248",
"3 	c #232F36",
"4 	c #16252C",
"5 	c #2A353C",
"6 	c #18262D",
"7 	c #4C5358",
"8 	c #4C5258",
"9 	c #3D454B",
"0 	c #333D44",
"a 	c #353F45",
"b 	c #343E44",
"c 	c #19272E",
"d 	c #253238",
"e 	c #1B2930",
"f 	c #545B5F",
"g 	c #535A5E",
"h 	c #464F53",
"i 	c #1C2A31",
"j 	c #29363C",
"k 	c #1D2C32",
"l 	c #5C6265",
"m 	c #5B6165",
"n 	c #4D5559",
"o 	c #1E2C33",
"p 	c #2D393F",
"q 	c #202E34",
"r 	c #636A6C",
"s 	c #62696B",
"t 	c #5C6366",
"u 	c #384449",
"v 	c #475155",
"w 	c #3A464A",
"x 	c #6B7173",
"y 	c #6A7072",
"z 	c #5A6264",
"A 	c #676D70",
"B 	c #666D6F",
"C 	c #676E70",
"D 	c #263339",
"E 	c #737979",
"F 	c #727879",
"G 	c #61696A",
"H 	c #29363B",
"I 	c #797F7F",
"J 	c #7A8080",
"K 	c #676F70",
"L 	c #737A7A",
"M 	c #73797A",
"N 	c #747A7B",
"O 	c #2B383E",
"P 	c #717778",
"Q 	c #606869",
"R 	c #253339",
"S 	c #384448",
"T 	c #28363B",
"U 	c #696F71",
"V 	c #596164",
"W 	c #233137",
"X 	c #344045",
"Y 	c #61686A",
"Z 	c #63696B",
"` 	c #525B5E",
" .	c #303C41",
"..	c #223036",
"+.	c #5A6063",
"@.	c #4E5559",
"#.	c #5B6164",
"$.	c #4D5558",
"%.	c #3E484D",
"&.	c #3D474C",
"*.	c #3F484D",
"=.	c #1E2C32",
"-.	c #2C383E",
";.	c #202D34",
">.	c #52585C",
",.	c #53595D",
"'.	c #51575B",
").	c #444C51",
"!.	c #2D383E",
"~.	c #343F44",
"{.	c #1D2A31",
"].	c #4A5055",
"^.	c #4B5256",
"/.	c #3E474C",
"(.	c #1A282F",
"_.	c #42494E",
":.	c #444A4F",
"<.	c #3D444A",
"[.	c #3B4147",
"}.	c #3C4248",
"|.	c #333A40",
"1.	c #31393F",
"2.	c #343B41",
"3.	c #16242B",
"4.	c #333940",
"5.	c #2B343A",
"6.	c #111F26",
"7.	c #19252C",
"8.	c #121F27",
"9.	c #2B3239",
"0.	c #2D333A",
"a.	c #252D34",
"b.	c #0E1C24",
"c.	c #152129",
"d.	c #0F1D25",
"e.	c #232A32",
"f.	c #252B33",
"g.	c #1E262E",
"h.	c #0B1A22",
"i.	c #111D25",
"j.	c #0C1A22",
"k.	c #1B222B",
"l.	c #1D242D",
"m.	c #172029",
"n.	c #09171F",
"o.	c #0D1922",
"p.	c #091720",
"q.	c #141B24",
"r.	c #141B25",
"s.	c #151C26",
"t.	c #101922",
"u.	c #0D1820",
"v.	c #0C1720",
"w.	c #0E1821",
"x.	c #06141D",
". . . . . . . . . . . . . . . . . . . . . . . . + + + + + + + + ",
". + + + . . . . . . . . . . . . . . . . + + . . + + + + + + + + ",
"@ + + + @ @ @ @ @ @ @ @ @ @ @ @ @ @ @ @ + + @ @ + + + + + + + + ",
"# + + + # # # # # # # # # # # # # # $ % & & * = & & & & & + + + ",
"- + + + ; ; ; ; ; ; ; ; ; ; ; ; ; ; > , & & ' ) & + + + & + + + ",
"! ! ! ! ~ ~ ~ ~ ~ ~ ~ ~ ~ ~ ~ ~ ~ ~ { ] ^ ^ / ( & + + + & + + + ",
"_ _ _ _ _ _ _ _ _ _ _ _ _ _ _ _ _ _ ! _ _ _ _ : & + + + & + + + ",
"< < < < [ [ [ [ [ [ [ [ [ [ [ [ [ [ } < < < < | & + + + & + + + ",
"1 1 1 1 1 1 1 1 1 1 1 1 1 1 1 1 1 1 2 3 4 4 5 6 & & & & & + + + ",
"7 + + + 8 9 0 0 0 a b 0 0 0 0 0 0 0 a c & & d e & & & & & + + + ",
"f + + + g g g g g g g g g g g g g g h i & & j k & & & & & + + + ",
"l + + + m m m m m m m m m m m m m m n o & & p q & & & & & + + + ",
"r + + + s s s s s s s s s s s s s s t u & & v w & + + + & + + + ",
"x x x x y y y y y y y y y y y y y y z A B B C D & + + + & + + + ",
"E E E E F F F F F F F F F F F F F F G E E E E H & + + + & + + + ",
"I I I I I J J J J J J J J J J J J J K L M M N O & + + + & + + + ",
"P + + + P F F F F F F F F F F F F F Q R & & S T & & & & & + + + ",
"U + + + U y y y y y y y y y y y y y V W & & X R & & & & & + + + ",
"Y + + + Y Z Z Z Z Z Z Z Z Z Z Z Z Z ` q & &  ...& & & & & + + + ",
"+.+ + + +.@.#.#.#.$.%.&.&.&.&.&.&.&.*.=.& & -.;.& + + + & + + + ",
">.>.>.>.>.>.,.,.,.>.'.'.'.'.'.'.'.'.).!.;.;.~.{.& + + + & + + + ",
"].].].].].^.^.^.^.^.^.^.^.^.^.^.^.^./.].].].].(.& + + + & + + + ",
"_._._._._.:.:.:.:.:.:.:.:.:.:.:.:.:.<._._._._.3 & + + + & + + + ",
"[.[.[.[.[.}.}.}.}.}.}.}.}.}.}.}.}.}.|.|.1.1.2.3.& & & & & + + + ",
"4.+ + + 4.2.2.2.2.2.2.2.2.2.2.2.2.2.5.6.& & 7.8.& & & & & + + + ",
"9.+ + + 9.0.0.0.0.0.0.0.0.0.0.0.0.0.a.b.& & c.d.& & & & & + + + ",
"e.+ + + e.f.f.f.f.f.f.f.f.f.f.f.f.f.g.h.& & i.j.& & & & & + + + ",
"k.+ + + k.l.l.l.l.l.l.l.l.l.l.l.l.l.m.n.& & o.p.& + + + & + + + ",
"q.q.q.q.q.r.s.s.s.r.r.r.r.r.r.r.r.r.t.u.v.v.w.x.& + + + & + + + ",
"+ + + + + & + + + & & & & & & & & & & & & & & & & + + + & + + + ",
"+ + + + + & + + + & & & & & & & & & & & & & & & & + + + & + + + ",
"+ + + + + & & & & & & & & & & & & & & & & & & & & & & & & + + + "};
