/* XPM */
static const char * cursor_track_resize_xpm[] = {
"16 16 34 1",
" 	c None",
".	c #409FEA",
"+	c #3D9BE6",
"@	c #90DCFF",
"#	c #3A97E2",
"$	c #8CD8FD",
"%	c #81CDFC",
"&	c #3793DE",
"*	c #3692DD",
"=	c #88D4FC",
"-	c #328DD8",
";	c #83CFFA",
">	c #2E87D2",
",	c #7ECAF7",
"'	c #2980CB",
")	c #79C5F3",
"!	c #247AC5",
"~	c #77BFEF",
"{	c #1F73BE",
"]	c #73BAEA",
"^	c #1A6DB8",
"/	c #6CB7E8",
"(	c #1566B1",
"_	c #62B6EA",
":	c #1060AB",
"<	c #54B7ED",
"[	c #0C5AA5",
"}	c #44B8F2",
"|	c #0855A0",
"1	c #35B9F7",
"2	c #17ADF5",
"3	c #05509B",
"4	c #27BBFC",
"5	c #024C97",
"       .        ",
"      +@+       ",
"     #$%$#      ",
"    &**=**&     ",
"      -;-       ",
"      >,>       ",
"      ')'       ",
"      !~!       ",
"      {]{       ",
"      ^/^       ",
"      (_(       ",
"      :<:       ",
"    [[[}[[[     ",
"     |121|      ",
"      343       ",
"       5        "};
