/* XPM */
static char * cursor_trim_end_xpm[] = {
/* width height num_colors chars_per_pixel */
"32 32 3 1",
/* colors */
"  c None",
"! c #ff0010",
"# c #000000",
/* pixels */
"        ##########              ",
"        #!!!!!!!!#              ",
"        #!!!!!!!!#              ",
"        #######!!#              ",
"              #!!#              ",
"              #!!#              ",
"              #!!#              ",
"              #!!#              ",
"              #!!#              ",
"              #!!#              ",
"              #!!#              ",
"              #!!#              ",
"              #!!#              ",
"              #!!#              ",
"              #!!#              ",
"              #!!#              ",
"              #!!#              ",
"              #!!#              ",
"              #!!#              ",
"              #!!#              ",
"              #!!#              ",
"              #!!#              ",
"              #!!#              ",
"              #!!#              ",
"              #!!#              ",
"              #!!#              ",
"              #!!#              ",
"              #!!#              ",
"        #######!!#              ",
"        #!!!!!!!!#              ",
"        #!!!!!!!!#              ",
"        ##########              "
};
