/* XPM */
static char * picture_xpm[] = {
"16 16 113 2",
"  	c None",
". 	c #954000",
"+ 	c #923E00",
"@ 	c #DEDEDE",
"# 	c #8E3B00",
"$ 	c #E0E0E0",
"% 	c #3A8CFF",
"& 	c #3C8DFF",
"* 	c #4190FF",
"= 	c #4593FF",
"- 	c #3F8FFF",
"; 	c #3E8EFF",
"> 	c #4C97FF",
", 	c #5A9FFF",
"' 	c #5EA1FF",
") 	c #80B5FF",
"! 	c #ABCEFF",
"~ 	c #A7CCFF",
"{ 	c #8B3800",
"] 	c #E3E3E3",
"^ 	c #69A8FF",
"/ 	c #6FACFF",
"( 	c #7EB5FF",
"_ 	c #92C0FF",
": 	c #7AB2FF",
"< 	c #83B7FF",
"[ 	c #91C0FF",
"} 	c #81B6FF",
"| 	c #ADD0FF",
"1 	c #DCEBFF",
"2 	c #D2E5FF",
"3 	c #863500",
"4 	c #E7E7E7",
"5 	c #83B3C4",
"6 	c #A9CCE5",
"7 	c #BAD7FF",
"8 	c #B9D6FF",
"9 	c #B9D7FF",
"0 	c #D0E4FF",
"a 	c #B8D6FF",
"b 	c #AFD0FF",
"c 	c #B3D3FF",
"d 	c #C1DBFF",
"e 	c #D5E7FF",
"f 	c #E1EEFF",
"g 	c #823100",
"h 	c #EBEBEB",
"i 	c #3F8161",
"j 	c #49896B",
"k 	c #91BABC",
"l 	c #D1E5FF",
"m 	c #DBEBFF",
"n 	c #DAEAFF",
"o 	c #E3EFFF",
"p 	c #DEECFF",
"q 	c #E4F0FF",
"r 	c #EEF5FF",
"s 	c #7D2E00",
"t 	c #EFEFEF",
"u 	c #195D3B",
"v 	c #296C4B",
"w 	c #3A7C5C",
"x 	c #82ADA1",
"y 	c #9FC2BF",
"z 	c #B8D4DC",
"A 	c #CEE2ED",
"B 	c #D7E8F5",
"C 	c #E3F0FF",
"D 	c #EEF6FF",
"E 	c #F7FBFF",
"F 	c #782A00",
"G 	c #F3F3F3",
"H 	c #124E56",
"I 	c #16515A",
"J 	c #1E5A62",
"K 	c #306C74",
"L 	c #39747D",
"M 	c #447E88",
"N 	c #508994",
"O 	c #5C95A0",
"P 	c #69A1AD",
"Q 	c #78AEBB",
"R 	c #95C3D5",
"S 	c #B6D8F0",
"T 	c #722600",
"U 	c #F7F7F7",
"V 	c #34679A",
"W 	c #3A6DA0",
"X 	c #4174A7",
"Y 	c #4B7EB1",
"Z 	c #588BBD",
"` 	c #679ACA",
" .	c #78ABD8",
"..	c #89BCE5",
"+.	c #98CBF0",
"@.	c #A6D9F8",
"#.	c #B1E4FD",
"$.	c #B8EBFF",
"%.	c #6D2200",
"&.	c #FBFBFB",
"*.	c #4A7DB0",
"=.	c #5487BA",
"-.	c #5E91C4",
";.	c #699CCF",
">.	c #74A7DA",
",.	c #7EB1E4",
"'.	c #87BAED",
").	c #8FC2F5",
"!.	c #96C9FC",
"~.	c #5D1500",
"{.	c #FEFEFE",
"].	c #4C0900",
"^.	c #4A0700",
"                                ",
"                                ",
". . . . . . . . . . . . . . . . ",
"+ @ @ @ @ @ @ @ @ @ @ @ @ @ @ + ",
"# $ % & * = - ; > , ' ) ! ~ $ # ",
"{ ] ^ / ( _ : < _ [ } | 1 2 ] { ",
"3 4 5 6 7 8 9 0 a b c d e f 4 3 ",
"g h i j k l e m n l o p q r h g ",
"s t u v w x y z A B C q D E t s ",
"F G H I J K L M N O P Q R S G F ",
"T U V W X Y Z `  ...+.@.#.$.U T ",
"%.&.V W X *.=.-.;.>.,.'.).!.&.%.",
"~.{.{.{.{.{.{.{.{.{.{.{.{.{.{.~.",
"].^.^.^.^.^.^.^.^.^.^.^.^.^.^.].",
"                                ",
"                                "};
