/* XPM */
static const char * preview_previous_xpm[] = {
"16 16 47 1",
" 	c None",
".	c #409EE9",
"+	c #3C9AE5",
"@	c #94E0FF",
"#	c #3895E0",
"$	c #8BD7FD",
"%	c #94E0FE",
"&	c #338ED9",
"*	c #84D0F9",
"=	c #90DCFD",
"-	c #80CCF8",
";	c #2E87D2",
">	c #7DC9F6",
",	c #8CD8FB",
"'	c #68B4EF",
")	c #78C4F5",
"!	c #287FCA",
"~	c #7AC6F5",
"{	c #7FCBF0",
"]	c #4894D0",
"^	c #4591CD",
"/	c #5DA9DB",
"(	c #2277C2",
"_	c #73BFF0",
":	c #76C2EB",
"<	c #4490CC",
"[	c #58A4D9",
"}	c #1C6EB9",
"|	c #58AEE2",
"1	c #67BBE9",
"2	c #3A95D4",
"3	c #4CA4DC",
"4	c #1666B1",
"5	c #44B0E9",
"6	c #4FB8ED",
"7	c #279FE2",
"8	c #38A9E6",
"9	c #105FAA",
"0	c #2FB6F4",
"a	c #34B8F5",
"b	c #22B0F2",
"c	c #0B58A3",
"d	c #1CBAFD",
"e	c #06529D",
"f	c #1BBCFF",
"g	c #023A73",
"h	c #024D98",
"                ",
"   ...      .   ",
"   +@+     ++   ",
"   #$#    #%#   ",
"   &*&   &=-&   ",
"   ;>;  ;,');   ",
"   !~! !{]^/!   ",
"   (_((:<<<[(   ",
"   }|} }1223}   ",
"   454  46784   ",
"   909   9ab9   ",
"   cdc    cdc   ",
"   efe     ee   ",
"   ghg      g   ",
"                ",
"                "};
